# xmcd
#
# Track frame offsets:
#	150
#	626
#	1076
#	1526
#	1976
#	2531
#	3113
#	3563
#	4131
#	6963
#	7413
#	7900
#	8768
#	9321
#	9772
#	12532
#	12982
#	13432
#	13882
#	14432
#	14979
#	15532
#	15982
#	18755
#	19205
#	19775
#	20251
#	22181
#	23956
#	25414
#	27055
#	28619
#	31634
#	33461
#	35094
#	36062
#	37058
#	38107
#	38610
#	39673
#	40171
#	40716
#	41268
#	41787
#	42319
#	43796
#	46345
#	48094
#	51192
#	53741
#	55529
#	56084
#	56590
#	57123
#	57981
#	58431
#	58881
#	60026
#
# Disc length: 809 seconds
#
# Revision: 1
# Processed by: cddbd v1.5.2PL0 Copyright (c) Steve Scherf et al.
# Submitted via: audiograbber 1.83.01
#
DISCID=af03273a
DTITLE=Andrew Green - Jazz Guitar Structures - Boosting Your Solo Power
DYEAR=2002
DGENRE=Jazz
TTITLE0=Minor 7 arpeggios - example 1
TTITLE1=Minor 7 arpeggios - example 2
TTITLE2=Minor 7 arpeggios - example 3
TTITLE3=Minor 7 arpeggios - example 4
TTITLE4=Minor 7 arpeggios - example 5
TTITLE5=Minor 7 arpeggios - ii-V - I progression example 1
TTITLE6=Minor 7 arpeggios - ii-V - I progression example 2
TTITLE7=Minor 7 arpeggios - ii-V - I progression example 3
TTITLE8=Minor 7 arpeggios - ii-V - I progressions
TTITLE9=Major +2 - example 1
TTITLE10=Major +2 - example 2
TTITLE11=Major +2 - example 3
TTITLE12=Major +2 - ii-V - I progression example 1
TTITLE13=Major +2 - ii-V - I progression example 2
TTITLE14=Major +2 - ii-V - I progressions
TTITLE15=Minor tetrachords - example 1
TTITLE16=Minor tetrachords - example 2
TTITLE17=Minor tetrachords - example 3
TTITLE18=Minor tetrachords - example 4
TTITLE19=Minor tetrachords - example 5
TTITLE20=Minor tetrachords - ii-V - I progression example 1
TTITLE21=Minor tetrachords - ii-V - I progression example 2
TTITLE22=Minor tetrachords - ii-V - I progressions
TTITLE23=Standard tunes - example 1
TTITLE24=Standard tunes - example 2
TTITLE25=Standard tunes - example 3
TTITLE26=Standard tunes - combinations 1
TTITLE27=Standard tunes - combinations 2
TTITLE28=Standard tunes - etude 1
TTITLE29=Standard tunes - etude 2
TTITLE30=Standard tunes - etude 3
TTITLE31=Standard tunes - etude 4
TTITLE32=Standard tunes - etude 5
TTITLE33=Standard tunes - etude 6
TTITLE34=Non-functional tunes - example 1
TTITLE35=Non-functional tunes - example 2
TTITLE36=Non-functional tunes - example 3
TTITLE37=Non-functional tunes - combinations 1
TTITLE38=Non-functional tunes - combinations 2
TTITLE39=Non-functional tunes - combinations 3
TTITLE40=Non-functional tunes - combinations 4
TTITLE41=Non-functional tunes - combinations 5
TTITLE42=Non-functional tunes - combinations 6
TTITLE43=Non-functional tunes - combinations 7
TTITLE44=Non-functional tunes - etude 1
TTITLE45=Non-functional tunes - etude 2
TTITLE46=Non-functional tunes - etude 3
TTITLE47=Non-functional tunes - etude 4
TTITLE48=Non-functional tunes - etude 5
TTITLE49=Non-functional tunes - etude 6
TTITLE50=Modal tunes - example 1
TTITLE51=Modal tunes - example 2
TTITLE52=Modal tunes - example 3
TTITLE53=Modal tunes - example 4
TTITLE54=Modal tunes - example 5
TTITLE55=Modal tunes - example 6
TTITLE56=Modal tunes - example 7
TTITLE57=Free tunes - example
EXTD=YEAR: 2002
EXTT0=
EXTT1=
EXTT2=
EXTT3=
EXTT4=
EXTT5=
EXTT6=
EXTT7=
EXTT8=
EXTT9=
EXTT10=
EXTT11=
EXTT12=
EXTT13=
EXTT14=
EXTT15=
EXTT16=
EXTT17=
EXTT18=
EXTT19=
EXTT20=
EXTT21=
EXTT22=
EXTT23=
EXTT24=
EXTT25=
EXTT26=
EXTT27=
EXTT28=
EXTT29=
EXTT30=
EXTT31=
EXTT32=
EXTT33=
EXTT34=
EXTT35=
EXTT36=
EXTT37=
EXTT38=
EXTT39=
EXTT40=
EXTT41=
EXTT42=
EXTT43=
EXTT44=
EXTT45=
EXTT46=
EXTT47=
EXTT48=
EXTT49=
EXTT50=
EXTT51=
EXTT52=
EXTT53=
EXTT54=
EXTT55=
EXTT56=
EXTT57=
PLAYORDER=
